<svg xmlns="http://www.w3.org/2000/svg" xmlns:xlink="http://www.w3.org/1999/xlink" width="500" zoomAndPan="magnify" viewBox="0 0 375 374.999991" height="500" preserveAspectRatio="xMidYMid meet" version="1.0"><defs><g/><clipPath id="a1cceed4e0"><path d="M 93.378906 118 L 134 118 L 134 248 L 93.378906 248 Z M 93.378906 118 " clip-rule="nonzero"/></clipPath><clipPath id="adbe2f172a"><path d="M 253 119 L 281.628906 119 L 281.628906 248 L 253 248 Z M 253 119 " clip-rule="nonzero"/></clipPath><clipPath id="7a191a66d3"><path d="M 153.621094 37.5 L 232.371094 37.5 L 232.371094 96 L 153.621094 96 Z M 153.621094 37.5 " clip-rule="nonzero"/></clipPath></defs><rect x="-37.5" width="450" fill="#ffffff" y="-37.499999" height="449.999989" fill-opacity="1"/><rect x="-37.5" width="450" fill="#ffffff" y="-37.499999" height="449.999989" fill-opacity="1"/><rect x="-37.5" width="450" fill="#000000" y="-37.499999" height="449.999989" fill-opacity="1"/><g clip-path="url(#a1cceed4e0)"><path fill="#dba632" d="M 109.589844 181.414062 C 105.546875 181.414062 102.257812 181.46875 98.972656 181.402344 C 94.324219 181.308594 93.410156 180.410156 93.40625 175.738281 C 93.375 158.96875 93.398438 142.203125 93.402344 125.433594 C 93.402344 124.679688 93.367188 123.914062 93.46875 123.171875 C 93.78125 120.957031 94.945312 119.777344 96.886719 119.613281 C 98.964844 119.433594 100.714844 120.640625 101.171875 122.808594 C 101.417969 123.972656 101.339844 125.210938 101.34375 126.414062 C 101.355469 140.460938 101.355469 154.511719 101.359375 168.558594 C 101.359375 170.050781 101.359375 171.539062 101.359375 173.375 C 104.03125 173.375 106.363281 173.375 109.230469 173.375 C 109.351562 171.621094 109.574219 169.886719 109.578125 168.148438 C 109.605469 153.949219 109.589844 139.75 109.597656 125.550781 C 109.597656 124.191406 109.574219 122.824219 109.738281 121.476562 C 109.984375 119.488281 111.421875 118.695312 113.222656 118.582031 C 115.085938 118.464844 116.515625 119.285156 116.886719 121.207031 C 117.140625 122.523438 117.117188 123.90625 117.121094 125.261719 C 117.140625 139.609375 117.128906 153.960938 117.152344 168.3125 C 117.15625 169.929688 117.292969 171.550781 117.382812 173.425781 C 120.121094 173.425781 122.449219 173.425781 125.21875 173.425781 C 125.292969 171.621094 125.410156 170.011719 125.414062 168.402344 C 125.421875 154.507812 125.398438 140.609375 125.421875 126.710938 C 125.425781 125.21875 125.472656 123.675781 125.828125 122.238281 C 126.273438 120.425781 127.628906 119.527344 129.546875 119.605469 C 131.558594 119.6875 132.851562 120.804688 133.183594 122.914062 C 133.347656 123.949219 133.3125 125.023438 133.3125 126.078125 C 133.320312 142.390625 133.320312 158.710938 133.320312 175.023438 C 133.320312 175.476562 133.332031 175.929688 133.3125 176.382812 C 133.152344 180.265625 132.277344 181.234375 128.503906 181.402344 C 126.246094 181.503906 123.976562 181.386719 121.71875 181.429688 C 120.398438 181.457031 119.089844 181.597656 117.378906 181.71875 C 117.285156 183.890625 117.140625 185.808594 117.136719 187.726562 C 117.121094 205.101562 117.132812 222.46875 117.125 239.84375 C 117.125 241.351562 117.164062 242.882812 116.894531 244.351562 C 116.546875 246.242188 115.132812 247.144531 113.273438 247.097656 C 111.445312 247.050781 110.050781 246.1875 109.78125 244.222656 C 109.597656 242.886719 109.597656 241.515625 109.597656 240.160156 C 109.589844 222.484375 109.59375 204.808594 109.59375 187.136719 C 109.589844 185.496094 109.589844 183.863281 109.589844 181.414062 Z M 109.589844 181.414062 " fill-opacity="1" fill-rule="nonzero"/></g><path fill="#dba632" d="M 233.691406 177.652344 C 234.074219 200.355469 215.5625 221.363281 190.152344 221.601562 C 165.542969 221.839844 145.816406 202.035156 145.882812 177.453125 C 145.941406 153.054688 165.566406 133.328125 189.902344 133.480469 C 216.222656 133.640625 234.335938 155.660156 233.691406 177.652344 Z M 153.746094 177.433594 C 153.296875 195.609375 168.125 213.78125 189.902344 213.730469 C 211.585938 213.679688 226.003906 195.53125 225.898438 177.667969 C 225.777344 157.664062 209.609375 141.300781 189.675781 141.3125 C 169.988281 141.324219 153.804688 157.59375 153.746094 177.433594 Z M 153.746094 177.433594 " fill-opacity="1" fill-rule="nonzero"/><g clip-path="url(#adbe2f172a)"><path fill="#dba632" d="M 261.691406 200.757812 C 261.691406 202.707031 261.691406 204.195312 261.691406 205.683594 C 261.691406 217 261.691406 228.316406 261.691406 239.636719 C 261.691406 240.84375 261.773438 242.066406 261.628906 243.253906 C 261.320312 245.753906 259.628906 247.265625 257.472656 247.113281 C 255.472656 246.972656 254.082031 245.507812 253.835938 243.203125 C 253.753906 242.457031 253.8125 241.695312 253.8125 240.941406 C 253.8125 202.460938 253.890625 163.980469 253.714844 125.503906 C 253.695312 120.515625 256.414062 118.710938 260.863281 120.023438 C 267.304688 121.925781 271.90625 126.074219 275.246094 131.695312 C 278.453125 137.089844 280.148438 143.050781 280.726562 149.261719 C 281.199219 154.359375 281.4375 159.492188 281.496094 164.613281 C 281.613281 174.570312 281.550781 184.53125 281.523438 194.492188 C 281.511719 199.421875 280.359375 200.636719 275.421875 200.742188 C 271.078125 200.832031 266.722656 200.757812 261.691406 200.757812 Z M 273.160156 192.425781 C 273.363281 191.609375 273.570312 191.175781 273.570312 190.742188 C 273.5625 178.675781 273.835938 166.597656 273.367188 154.550781 C 273.171875 149.519531 271.746094 144.445312 270.214844 139.597656 C 268.917969 135.472656 266.464844 131.816406 261.996094 129.265625 C 261.996094 150.605469 261.996094 171.441406 261.996094 192.425781 C 265.898438 192.425781 269.558594 192.425781 273.160156 192.425781 Z M 273.160156 192.425781 " fill-opacity="1" fill-rule="nonzero"/></g><path fill="#dba632" d="M 187.871094 251.019531 C 162.246094 249.894531 141.046875 238.203125 126.625 214.75 C 125.855469 213.5 125.285156 212.039062 125.007812 210.601562 C 124.691406 208.980469 125.496094 207.601562 127.054688 206.945312 C 128.703125 206.25 130.34375 206.363281 131.566406 207.859375 C 132.230469 208.671875 132.730469 209.617188 133.265625 210.523438 C 155.652344 248.425781 207 254.261719 237.398438 222.359375 C 238.230469 221.488281 239 220.535156 239.929688 219.78125 C 241.582031 218.441406 243.449219 218.453125 244.882812 219.652344 C 246.457031 220.96875 246.738281 223 245.515625 224.941406 C 245.039062 225.699219 244.394531 226.359375 243.78125 227.019531 C 229.117188 242.765625 210.96875 250.585938 187.871094 251.019531 Z M 187.871094 251.019531 " fill-opacity="1" fill-rule="nonzero"/><path fill="#dba632" d="M 191.867188 112.101562 C 176.089844 112.105469 163.789062 115.964844 152.683594 123.679688 C 151.199219 124.714844 149.78125 125.863281 148.210938 126.746094 C 146.460938 127.734375 144.589844 127.238281 143.375 125.738281 C 142.179688 124.265625 142.195312 122.335938 143.53125 120.773438 C 144.113281 120.09375 144.867188 119.558594 145.582031 119.011719 C 175.40625 96.027344 219.5625 100.324219 244.238281 128.609375 C 244.828125 129.285156 245.476562 129.964844 245.871094 130.753906 C 246.753906 132.507812 246.230469 134.40625 244.652344 135.578125 C 243.125 136.707031 241.527344 136.730469 240.085938 135.515625 C 239.054688 134.648438 238.199219 133.574219 237.265625 132.585938 C 224.996094 119.578125 207.003906 111.671875 191.867188 112.101562 Z M 191.867188 112.101562 " fill-opacity="1" fill-rule="nonzero"/><path fill="#dba632" d="M 164.785156 65.886719 L 163.238281 63.214844 L 161.691406 65.886719 L 163.238281 68.472656 Z M 164.785156 65.886719 " fill-opacity="1" fill-rule="nonzero"/><path fill="#dba632" d="M 182.300781 59.507812 L 180.84375 56.835938 L 179.296875 59.507812 L 180.84375 62.09375 Z M 182.300781 59.507812 " fill-opacity="1" fill-rule="nonzero"/><path fill="#dba632" d="M 224.296875 65.886719 L 222.75 63.214844 L 221.203125 65.886719 L 222.75 68.472656 Z M 224.296875 65.886719 " fill-opacity="1" fill-rule="nonzero"/><path fill="#dba632" d="M 206.691406 59.507812 L 205.144531 56.835938 L 203.6875 59.507812 L 205.144531 62.09375 Z M 206.691406 59.507812 " fill-opacity="1" fill-rule="nonzero"/><g clip-path="url(#7a191a66d3)"><path fill="#dba632" d="M 220.519531 76.921875 L 214.9375 58.386719 L 204.371094 72.265625 L 194.410156 52.4375 L 197.417969 46.40625 L 193.035156 37.609375 L 188.570312 46.40625 L 191.578125 52.4375 L 181.617188 72.179688 L 171.222656 58.386719 L 165.640625 77.007812 L 153.621094 63.128906 L 161.863281 89.335938 L 161.949219 89.507812 L 161.949219 95.890625 L 224.039062 95.890625 L 224.039062 89.507812 L 224.210938 89.078125 L 232.371094 63.128906 Z M 221.121094 88.042969 L 214.335938 88.042969 L 219.402344 82.179688 Z M 213.90625 63.992188 L 218.542969 79.25 L 211.84375 87.007812 L 205.746094 74.855469 Z M 209.441406 88.042969 L 195.699219 88.042969 L 203.945312 77.179688 Z M 191.40625 46.40625 L 192.953125 43.386719 L 194.496094 46.40625 L 192.953125 49.507812 Z M 193.035156 55.285156 L 202.65625 74.507812 L 193.035156 87.269531 L 183.417969 74.421875 Z M 166.671875 82.269531 L 171.652344 88.042969 L 164.953125 88.042969 Z M 190.375 88.042969 L 176.546875 88.042969 L 182.042969 77.007812 Z M 172.253906 63.992188 L 180.328125 74.679688 L 174.230469 87.007812 L 167.617188 79.335938 Z M 159.800781 74.335938 L 164.699219 79.941406 L 163.152344 84.941406 Z M 221.460938 93.300781 L 164.527344 93.300781 L 164.527344 90.628906 L 221.460938 90.628906 Z M 222.835938 84.769531 L 221.375 79.855469 L 226.1875 74.335938 Z M 222.835938 84.769531 " fill-opacity="1" fill-rule="nonzero"/></g><g fill="#ffffff" fill-opacity="1"><g transform="translate(126.428608, 321.998763)"><g><path d="M 9.46875 0 L 7.203125 -3.75 C 7.085938 -3.738281 6.898438 -3.734375 6.640625 -3.734375 L 3.71875 -3.734375 L 3.71875 0 L 1.625 0 L 1.625 -12.375 L 6.640625 -12.375 C 8.222656 -12.375 9.445312 -12.003906 10.3125 -11.265625 C 11.1875 -10.523438 11.625 -9.484375 11.625 -8.140625 C 11.625 -7.148438 11.398438 -6.3125 10.953125 -5.625 C 10.515625 -4.945312 9.882812 -4.453125 9.0625 -4.140625 L 11.84375 0 Z M 3.71875 -5.609375 L 6.640625 -5.609375 C 8.648438 -5.609375 9.65625 -6.4375 9.65625 -8.09375 C 9.65625 -9.695312 8.648438 -10.5 6.640625 -10.5 L 3.71875 -10.5 Z M 3.71875 -5.609375 "/></g></g></g><g fill="#ffffff" fill-opacity="1"><g transform="translate(139.199848, 321.998763)"><g><path d="M 10.46875 -10.5 L 3.71875 -10.5 L 3.71875 -7.15625 L 9.75 -7.15625 L 9.75 -5.28125 L 3.71875 -5.28125 L 3.71875 -1.875 L 10.671875 -1.875 L 10.671875 0 L 1.625 0 L 1.625 -12.375 L 10.46875 -12.375 Z M 10.46875 -10.5 "/></g></g></g><g fill="#ffffff" fill-opacity="1"><g transform="translate(150.787595, 321.998763)"><g><path d="M 5.6875 -12.453125 C 7.289062 -12.453125 8.734375 -12.03125 10.015625 -11.1875 L 9.15625 -9.34375 C 7.894531 -10.113281 6.6875 -10.5 5.53125 -10.5 C 4.90625 -10.5 4.410156 -10.382812 4.046875 -10.15625 C 3.691406 -9.9375 3.515625 -9.617188 3.515625 -9.203125 C 3.515625 -8.796875 3.675781 -8.445312 4 -8.15625 C 4.332031 -7.863281 4.742188 -7.648438 5.234375 -7.515625 C 5.734375 -7.378906 6.269531 -7.207031 6.84375 -7 C 7.425781 -6.800781 7.960938 -6.585938 8.453125 -6.359375 C 8.953125 -6.128906 9.363281 -5.769531 9.6875 -5.28125 C 10.007812 -4.789062 10.171875 -4.195312 10.171875 -3.5 C 10.171875 -2.414062 9.738281 -1.546875 8.875 -0.890625 C 8.007812 -0.242188 6.890625 0.078125 5.515625 0.078125 C 4.566406 0.078125 3.648438 -0.0976562 2.765625 -0.453125 C 1.890625 -0.804688 1.117188 -1.285156 0.453125 -1.890625 L 1.359375 -3.6875 C 1.984375 -3.113281 2.671875 -2.671875 3.421875 -2.359375 C 4.171875 -2.046875 4.878906 -1.890625 5.546875 -1.890625 C 6.273438 -1.890625 6.84375 -2.019531 7.25 -2.28125 C 7.65625 -2.550781 7.859375 -2.921875 7.859375 -3.390625 C 7.859375 -3.816406 7.691406 -4.171875 7.359375 -4.453125 C 7.035156 -4.742188 6.625 -4.957031 6.125 -5.09375 C 5.632812 -5.226562 5.097656 -5.394531 4.515625 -5.59375 C 3.941406 -5.789062 3.40625 -5.992188 2.90625 -6.203125 C 2.414062 -6.421875 2.003906 -6.769531 1.671875 -7.25 C 1.347656 -7.738281 1.1875 -8.328125 1.1875 -9.015625 C 1.1875 -10.054688 1.597656 -10.890625 2.421875 -11.515625 C 3.242188 -12.140625 4.332031 -12.453125 5.6875 -12.453125 Z M 5.6875 -12.453125 "/></g></g></g><g fill="#ffffff" fill-opacity="1"><g transform="translate(161.774757, 321.998763)"><g><path d="M 10.078125 -10.5 L 6.15625 -10.5 L 6.15625 0 L 4.0625 0 L 4.0625 -10.5 L 0.15625 -10.5 L 0.15625 -12.375 L 10.078125 -12.375 Z M 10.078125 -10.5 "/></g></g></g><g fill="#ffffff" fill-opacity="1"><g transform="translate(172.002358, 321.998763)"><g><path d="M 9.609375 -2.796875 L 3.375 -2.796875 L 2.1875 0 L 0.015625 0 L 5.484375 -12.375 L 7.609375 -12.375 L 13.03125 0 L 10.796875 0 Z M 8.8125 -4.640625 L 6.484375 -10.140625 L 4.15625 -4.640625 Z M 8.8125 -4.640625 "/></g></g></g><g fill="#ffffff" fill-opacity="1"><g transform="translate(185.038569, 321.998763)"><g><path d="M 12.140625 -12.375 L 12.140625 -5.125 C 12.140625 -3.507812 11.660156 -2.234375 10.703125 -1.296875 C 9.753906 -0.367188 8.441406 0.09375 6.765625 0.09375 C 5.097656 0.09375 3.78125 -0.367188 2.8125 -1.296875 C 1.851562 -2.234375 1.375 -3.507812 1.375 -5.125 L 1.375 -12.375 L 3.46875 -12.375 L 3.46875 -5.125 C 3.46875 -4.082031 3.765625 -3.265625 4.359375 -2.671875 C 4.953125 -2.078125 5.757812 -1.78125 6.78125 -1.78125 C 7.800781 -1.78125 8.601562 -2.070312 9.1875 -2.65625 C 9.769531 -3.25 10.0625 -4.070312 10.0625 -5.125 L 10.0625 -12.375 Z M 12.140625 -12.375 "/></g></g></g><g fill="#ffffff" fill-opacity="1"><g transform="translate(198.534049, 321.998763)"><g><path d="M 9.46875 0 L 7.203125 -3.75 C 7.085938 -3.738281 6.898438 -3.734375 6.640625 -3.734375 L 3.71875 -3.734375 L 3.71875 0 L 1.625 0 L 1.625 -12.375 L 6.640625 -12.375 C 8.222656 -12.375 9.445312 -12.003906 10.3125 -11.265625 C 11.1875 -10.523438 11.625 -9.484375 11.625 -8.140625 C 11.625 -7.148438 11.398438 -6.3125 10.953125 -5.625 C 10.515625 -4.945312 9.882812 -4.453125 9.0625 -4.140625 L 11.84375 0 Z M 3.71875 -5.609375 L 6.640625 -5.609375 C 8.648438 -5.609375 9.65625 -6.4375 9.65625 -8.09375 C 9.65625 -9.695312 8.648438 -10.5 6.640625 -10.5 L 3.71875 -10.5 Z M 3.71875 -5.609375 "/></g></g></g><g fill="#ffffff" fill-opacity="1"><g transform="translate(211.305289, 321.998763)"><g><path d="M 9.609375 -2.796875 L 3.375 -2.796875 L 2.1875 0 L 0.015625 0 L 5.484375 -12.375 L 7.609375 -12.375 L 13.03125 0 L 10.796875 0 Z M 8.8125 -4.640625 L 6.484375 -10.140625 L 4.15625 -4.640625 Z M 8.8125 -4.640625 "/></g></g></g><g fill="#ffffff" fill-opacity="1"><g transform="translate(224.3415, 321.998763)"><g><path d="M 12.359375 0 L 10.296875 0 L 3.71875 -8.875 L 3.71875 0 L 1.625 0 L 1.625 -12.375 L 3.671875 -12.375 L 10.296875 -3.484375 L 10.296875 -12.375 L 12.359375 -12.375 Z M 12.359375 0 "/></g></g></g><g fill="#ffffff" fill-opacity="1"><g transform="translate(238.331586, 321.998763)"><g><path d="M 10.078125 -10.5 L 6.15625 -10.5 L 6.15625 0 L 4.0625 0 L 4.0625 -10.5 L 0.15625 -10.5 L 0.15625 -12.375 L 10.078125 -12.375 Z M 10.078125 -10.5 "/></g></g></g><g fill="#ffffff" fill-opacity="1"><g transform="translate(54.021937, 297.186209)"><g><path d="M 0.832031 -16.90625 L 2.097656 -16.90625 C 2.59375 -18.933594 4.027344 -20.765625 6.820312 -20.765625 L 8.71875 -20.765625 C 9.085938 -20.765625 9.382812 -20.5 9.382812 -20.097656 L 9.382812 -5.390625 C 9.316406 -2.863281 8.617188 -1.265625 6.621094 -1.265625 L 6.621094 0 L 18.636719 0 L 18.636719 -1.265625 C 16.539062 -1.265625 15.875 -3.027344 15.875 -5.789062 L 15.875 -20.097656 C 15.875 -20.5 16.140625 -20.765625 16.539062 -20.765625 L 18.433594 -20.765625 C 21.199219 -20.765625 22.660156 -18.933594 23.160156 -16.90625 L 24.425781 -16.90625 L 23.625 -23.292969 L 1.628906 -23.292969 Z M 0.832031 -16.90625 "/></g></g></g><g fill="#ffffff" fill-opacity="1"><g transform="translate(79.269948, 297.186209)"><g><path d="M 16.339844 -23.261719 L 9.882812 -23.261719 L 10.382812 -21.695312 C 10.515625 -21.332031 10.515625 -20.964844 10.382812 -20.597656 L 5.191406 -5.757812 C 4.226562 -2.996094 2.929688 -1.230469 0.832031 -1.230469 L 0.832031 0.0351562 L 9.582031 0.0351562 L 9.582031 -1.230469 C 7.785156 -1.230469 7.453125 -2.5625 8.019531 -4.726562 C 8.121094 -5.15625 8.519531 -5.457031 8.953125 -5.457031 L 15.042969 -5.457031 C 15.472656 -5.457031 15.875 -5.15625 15.972656 -4.726562 C 16.503906 -2.5625 16.207031 -1.230469 14.375 -1.230469 L 14.375 0.0351562 L 26.820312 0.0351562 L 26.820312 -1.230469 C 24.726562 -1.230469 23.460938 -2.996094 22.460938 -5.757812 Z M 9.75 -7.988281 C 9.417969 -7.988281 9.152344 -8.320312 9.285156 -8.652344 L 11.648438 -16.238281 C 11.746094 -16.570312 12.246094 -16.570312 12.347656 -16.238281 L 14.707031 -8.652344 C 14.839844 -8.320312 14.574219 -7.988281 14.242188 -7.988281 Z M 9.75 -7.988281 "/></g></g></g><g fill="#ffffff" fill-opacity="1"><g transform="translate(106.913027, 297.186209)"><g><path d="M 15.839844 -22.027344 C 17.902344 -22.027344 18.570312 -20.332031 18.601562 -17.671875 L 18.601562 -13.542969 C 18.601562 -13.210938 18.300781 -12.878906 17.9375 -12.878906 L 11.914062 -12.878906 C 11.546875 -12.878906 11.246094 -13.210938 11.246094 -13.542969 L 11.246094 -17.503906 C 11.246094 -20.265625 11.914062 -22.027344 14.042969 -22.027344 L 14.042969 -23.292969 L 1.996094 -23.292969 L 1.996094 -22.027344 C 4.058594 -22.027344 4.726562 -20.332031 4.757812 -17.671875 L 4.757812 -5.625 C 4.726562 -2.929688 4.058594 -1.265625 1.996094 -1.265625 L 1.996094 0 L 14.042969 0 L 14.042969 -1.265625 C 11.914062 -1.265625 11.246094 -2.996094 11.246094 -5.789062 L 11.246094 -9.71875 C 11.246094 -10.082031 11.546875 -10.382812 11.914062 -10.382812 L 17.9375 -10.382812 C 18.300781 -10.382812 18.601562 -10.082031 18.601562 -9.71875 L 18.601562 -5.625 C 18.570312 -2.929688 17.902344 -1.265625 15.839844 -1.265625 L 15.839844 0 L 27.851562 0 L 27.851562 -1.265625 C 25.757812 -1.265625 25.089844 -2.996094 25.089844 -5.789062 L 25.089844 -17.503906 C 25.089844 -20.265625 25.757812 -22.027344 27.851562 -22.027344 L 27.851562 -23.292969 L 15.839844 -23.292969 Z M 15.839844 -22.027344 "/></g></g></g><g fill="#ffffff" fill-opacity="1"><g transform="translate(136.751573, 297.186209)"><g><path d="M 16.339844 -23.261719 L 9.882812 -23.261719 L 10.382812 -21.695312 C 10.515625 -21.332031 10.515625 -20.964844 10.382812 -20.597656 L 5.191406 -5.757812 C 4.226562 -2.996094 2.929688 -1.230469 0.832031 -1.230469 L 0.832031 0.0351562 L 9.582031 0.0351562 L 9.582031 -1.230469 C 7.785156 -1.230469 7.453125 -2.5625 8.019531 -4.726562 C 8.121094 -5.15625 8.519531 -5.457031 8.953125 -5.457031 L 15.042969 -5.457031 C 15.472656 -5.457031 15.875 -5.15625 15.972656 -4.726562 C 16.503906 -2.5625 16.207031 -1.230469 14.375 -1.230469 L 14.375 0.0351562 L 26.820312 0.0351562 L 26.820312 -1.230469 C 24.726562 -1.230469 23.460938 -2.996094 22.460938 -5.757812 Z M 9.75 -7.988281 C 9.417969 -7.988281 9.152344 -8.320312 9.285156 -8.652344 L 11.648438 -16.238281 C 11.746094 -16.570312 12.246094 -16.570312 12.347656 -16.238281 L 14.707031 -8.652344 C 14.839844 -8.320312 14.574219 -7.988281 14.242188 -7.988281 Z M 9.75 -7.988281 "/></g></g></g><g fill="#ffffff" fill-opacity="1"><g transform="translate(164.394652, 297.186209)"><g><path d="M 6.15625 -23.925781 C 4.257812 -23.925781 2.894531 -22.5625 2.894531 -20.664062 C 2.894531 -19.167969 3.792969 -18.003906 5.089844 -17.769531 C 5.457031 -17.671875 5.757812 -17.371094 5.789062 -17.003906 C 5.921875 -15.539062 4.992188 -14.277344 3.792969 -14.277344 C 2.996094 -14.277344 2.695312 -14.839844 2.828125 -14.941406 C 2.828125 -14.941406 1.996094 -14.742188 1.996094 -13.84375 C 1.996094 -13.078125 2.59375 -12.511719 3.660156 -12.511719 C 6.421875 -12.511719 9.71875 -16.273438 9.71875 -19.867188 C 9.71875 -22.230469 8.285156 -23.925781 6.15625 -23.925781 Z M 6.15625 -23.925781 "/></g></g></g><g fill="#ffffff" fill-opacity="1"><g transform="translate(176.103872, 297.186209)"><g><path d="M 9.683594 -18.769531 C 9.683594 -19.933594 10.914062 -20.699219 12.777344 -20.699219 C 15.074219 -20.699219 16.4375 -19.601562 16.4375 -17.738281 C 16.4375 -16.9375 16.171875 -16.007812 15.671875 -15.109375 C 16.472656 -14.074219 17.804688 -13.445312 19.167969 -13.445312 C 21.5625 -13.445312 23.394531 -15.242188 23.394531 -17.402344 C 23.394531 -20.898438 18.570312 -23.894531 13.144531 -23.894531 C 7.355469 -23.894531 2.296875 -20.996094 2.296875 -16.539062 C 2.296875 -10.117188 15.839844 -7.917969 15.839844 -4.160156 C 15.839844 -3.128906 14.839844 -2.59375 12.84375 -2.59375 C 9.949219 -2.59375 8.417969 -3.726562 8.417969 -5.890625 C 8.417969 -6.722656 8.652344 -7.453125 9.050781 -8.1875 C 8.351562 -9.21875 7.089844 -9.851562 5.558594 -9.851562 C 3.0625 -9.851562 1.332031 -8.121094 1.332031 -5.757812 C 1.332031 -1.929688 5.855469 0.597656 11.980469 0.597656 C 18.570312 0.597656 23.492188 -1.730469 23.492188 -6.191406 C 23.492188 -12.679688 9.683594 -14.808594 9.683594 -18.769531 Z M 9.683594 -18.769531 "/></g></g></g><g fill="#ffffff" fill-opacity="1"><g transform="translate(200.753111, 297.186209)"><g/></g></g><g fill="#ffffff" fill-opacity="1"><g transform="translate(216.786763, 297.186209)"><g><path d="M 1.996094 -22.027344 C 3.859375 -22.027344 4.757812 -20.632812 4.792969 -17.671875 L 4.792969 -5.625 C 4.757812 -2.628906 3.859375 -1.265625 1.996094 -1.265625 L 1.996094 0 L 14.042969 0 L 14.042969 -1.265625 C 12.144531 -1.265625 11.28125 -2.664062 11.28125 -5.789062 L 11.28125 -8.886719 C 11.28125 -9.285156 11.582031 -9.582031 11.945312 -9.550781 C 14.773438 -9.449219 16.074219 -8.550781 16.074219 -6.820312 L 17.335938 -6.820312 L 17.335938 -14.875 L 16.074219 -14.875 C 16.074219 -13.175781 14.707031 -12.246094 11.980469 -12.113281 C 11.582031 -12.078125 11.28125 -12.378906 11.28125 -12.777344 L 11.28125 -20.097656 C 11.28125 -20.464844 11.582031 -20.765625 11.945312 -20.765625 L 15.441406 -20.765625 C 17.835938 -20.765625 19.566406 -19.332031 20.164062 -16.871094 L 21.429688 -16.871094 L 20.632812 -23.292969 L 1.996094 -23.292969 Z M 1.996094 -22.027344 "/></g></g></g><g fill="#ffffff" fill-opacity="1"><g transform="translate(239.207261, 297.186209)"><g><path d="M 13.578125 -23.894531 C 6.355469 -23.894531 1.332031 -18.933594 1.332031 -11.679688 C 1.332031 -4.425781 6.421875 0.597656 13.675781 0.597656 C 20.964844 0.597656 26.054688 -4.460938 26.054688 -11.613281 C 26.054688 -18.800781 20.898438 -23.925781 13.578125 -23.894531 Z M 14.972656 -2.59375 C 12.113281 -2.195312 9.21875 -5.921875 8.519531 -10.914062 C 7.820312 -15.90625 9.550781 -20.265625 12.414062 -20.699219 C 15.308594 -21.097656 18.203125 -17.371094 18.902344 -12.378906 C 19.601562 -7.386719 17.835938 -3.027344 14.972656 -2.59375 Z M 14.972656 -2.59375 "/></g></g></g><g fill="#ffffff" fill-opacity="1"><g transform="translate(266.584221, 297.186209)"><g><path d="M 13.578125 -23.894531 C 6.355469 -23.894531 1.332031 -18.933594 1.332031 -11.679688 C 1.332031 -4.425781 6.421875 0.597656 13.675781 0.597656 C 20.964844 0.597656 26.054688 -4.460938 26.054688 -11.613281 C 26.054688 -18.800781 20.898438 -23.925781 13.578125 -23.894531 Z M 14.972656 -2.59375 C 12.113281 -2.195312 9.21875 -5.921875 8.519531 -10.914062 C 7.820312 -15.90625 9.550781 -20.265625 12.414062 -20.699219 C 15.308594 -21.097656 18.203125 -17.371094 18.902344 -12.378906 C 19.601562 -7.386719 17.835938 -3.027344 14.972656 -2.59375 Z M 14.972656 -2.59375 "/></g></g></g><g fill="#ffffff" fill-opacity="1"><g transform="translate(293.961166, 297.186209)"><g><path d="M 1.996094 -23.292969 L 1.996094 -22.027344 C 4.058594 -22.027344 4.757812 -20.332031 4.757812 -17.671875 L 4.757812 -5.625 C 4.757812 -2.929688 4.058594 -1.265625 1.996094 -1.265625 L 1.996094 0 L 14.242188 0 C 20.832031 0 25.691406 -4.992188 25.691406 -11.714844 C 25.691406 -18.433594 20.898438 -23.292969 14.242188 -23.292969 Z M 11.945312 -2.496094 C 11.582031 -2.496094 11.28125 -2.796875 11.28125 -3.195312 L 11.28125 -20.097656 C 11.28125 -20.464844 11.546875 -20.765625 11.914062 -20.765625 L 12.480469 -20.765625 C 16.007812 -20.765625 18.734375 -15.574219 18.734375 -9.816406 C 18.734375 -5.722656 16.738281 -2.527344 14.34375 -2.527344 Z M 11.945312 -2.496094 "/></g></g></g></svg>